- 
http://www.Speed.Cd      fast  and The Hottest Private Tracker on the net

   signup is open now

Please Seed back to make the speed Faster!!!

------------------nfo--------------------------
-                                             
                               
                                 
                                      
                                      
                                       
    CoaX!&lt;CPH&gt;                         
                               
                         
                            
          
    Team FiCO &lt;Final Coalition&gt; 2k8 Presents:    
    

Lisa.Lampanelli.The.Queen.of.Mean.2002.DVDRip.XviD-FiCO
 
http://www.imdb.com/title/tt0777244/
Subtitles: None
Date: 2011.11

Director: Theodore Brown
Genre: Standup Comedy
Plot: In clubs and theatres across the country, Lisa Lampanelli calls 
audience members colored, queer, bald, fat, and old. Do they get offended? 
Angry? No! They laugh uncontrollably and demand to know when she'll be back 
in town. After watching this hour-long concert--filmed live at Rascal's 
Comedy Club in West Orange, New Jersey--you'll see why! A cross between Don 
Rickles, Archie Bunker, and a vial of estrogen, Lisa lives up to her three 
favorite F-words: "Fierce, Funny, and Fearless"! She's got a bawdy personality, 
all-out honesty, and the insult comic's most essential quality--undeniable 
likeability. All this adds up to one important 4-letter word: STAR.

Stats:
General
Format                           : AVI
Format/Info                      : Audio Video Interleave
File size                        : 696 MiB
Duration                         : 49mn 54s
Overall bit rate                 : 1 950 Kbps
Writing application              : VirtualDubMod 1.5.10.2 (build 2542/release)
Writing library                  : VirtualDubMod build 2542/release

Video
ID                               : 0
Format                           : MPEG-4 Visual
Format profile                   : Advanced Simple@L5
Format settings, BVOP            : Yes
Format settings, QPel            : No
Format settings, GMC             : No warppoints
Format settings, Matrix          : Default (H.263)
Codec ID                         : XVID
Codec ID/Hint                    : XviD
Duration                         : 49mn 54s
Bit rate                         : 1 746 Kbps
Width                            : 640 pixels
Height                           : 480 pixels
Display aspect ratio             : 4:3
Frame rate                       : 29.970 fps
Resolution                       : 8 bits
Colorimetry                      : 4:2:0
Scan type                        : Progressive
Bits/(Pixel*Frame)               : 0.190
Stream size                      : 623 MiB (90%)
Writing library                  : XviD 61

Audio
ID                               : 1
Format                           : AC-3
Format/Info                      : Audio Coding 3
Format_Settings_ModeExtension    : CM (complete main)
Codec ID                         : 2000
Duration                         : 49mn 54s
Bit rate mode                    : Constant
Bit rate                         : 192 Kbps
Channel(s)                       : 2 channels
Channel positions                : Front: L R
Sampling rate                    : 48.0 KHz
Stream size                      : 68.5 MiB (10%)
Alignment                        : Split accross interleaves
Interleave, duration             : 33 ms (1.00 video frame)
Interleave, preload duration     : 500 ms




Release notes:
enjoy!


                                                                     
                                                             
                                                               
                                                               
                       
      
              Greetz from Team FiCO:               
              
                                                             
                                                             
           BLooDWeiSeR,CULTXviD,SiCK,DoNE,LAP,TH30R1STS              
                                                                             
               WinBeta, DvF, WASTE, BERC, KALEVALA, Jiggly                   
                                                                             
                                                             
                                       
                             
                      
                  
           
            
                    
                  
                
                            
                                        
                                        
                                            
                                                    
                                                              
                      you know where to find us...                     
                        
   NFO By: CoaXCable/CoolPHat &lt;#CPH&gt;